<?xml version="1.0" encoding="UTF-8"?><svg id="Camada_2" xmlns="http://www.w3.org/2000/svg" viewBox="0 0 425.09 578.57"><defs><style>.cls-1{fill:gold;}.cls-2{fill:none;}.cls-3{fill:#ffe471;}</style></defs><g id="Camada_1-2"><path class="cls-3" d="m0,518.13c21.04-44.48,141.23-99.99,206.36-117.6L0,405.56v112.57Z"/><path class="cls-1" d="m316.68,173.05c-72.06-11.32-152.32,29.14-188.07,5.76-35.75-23.38,15.84-53.96,38.61-65.38C320.06,36.73,138.61,6.44,0,79.42v379.95c42.43-39.81,148.39-57.32,206.36-58.85,64.81-1.71,94.02-21.4,75.87-53.89-18.15-32.49-121.2-45.98-85.72-73.4,35.49-27.42,158.45,3.38,182.77-17.26,24.32-20.64,9.46-71.59-62.6-82.92Z"/><path class="cls-3" d="m322.11,263.34c26.18.85,48.27.18,57.17-7.37,24.32-20.64,9.46-71.59-62.6-82.92-37.61-5.91-77.45,2.29-112.03,8.15,61.51.11,144.02,33.06,117.46,82.13Z"/><rect class="cls-2" width="425.09" height="578.57"/></g></svg>