<?xml version="1.0" encoding="UTF-8"?><svg id="Camada_2" xmlns="http://www.w3.org/2000/svg" viewBox="0 0 19.88 19.88"><defs><style>.cls-1{fill:#93c2e5;}</style></defs><g id="Camada_1-2"><path class="cls-1" d="m15.2,3.55c-.64,0-1.17.52-1.17,1.17s.52,1.17,1.17,1.17,1.17-.52,1.17-1.17-.52-1.17-1.17-1.17Z"/><path class="cls-1" d="m10.03,5.04c-2.7,0-4.9,2.2-4.9,4.9s2.2,4.9,4.9,4.9,4.9-2.2,4.9-4.9-2.2-4.9-4.9-4.9Zm0,8.03c-1.73,0-3.13-1.41-3.13-3.13s1.41-3.13,3.13-3.13,3.13,1.41,3.13,3.13-1.41,3.13-3.13,3.13Z"/><path class="cls-1" d="m13.91,19.88h-7.94c-3.3,0-5.97-2.68-5.97-5.97v-7.94C0,2.67,2.67,0,5.97,0h7.94c3.3,0,5.97,2.67,5.97,5.97v7.94c0,3.3-2.68,5.97-5.97,5.97ZM5.97,1.87C3.71,1.87,1.87,3.71,1.87,5.97v7.94c0,2.26,1.84,4.1,4.1,4.1h7.94c2.26,0,4.1-1.84,4.1-4.1v-7.94c0-2.26-1.84-4.1-4.1-4.1h-7.94Z"/></g></svg>